<svg xmlns="http://www.w3.org/2000/svg" width="1200" height="630" viewBox="0 0 1200 630" role="img" aria-label="Portátil o móvil: contado, financiar o renting"><rect width="1200" height="630" fill="#f1f8f4"/><circle cx="1000" cy="330" r="230" fill="#d8f1e3"/><circle cx="1000" cy="330" r="258" fill="none" stroke="#1faa6a" stroke-opacity=".22" stroke-width="3"/><g transform="translate(850 180) scale(3)"><ellipse cx="42" cy="68" rx="30" ry="12" fill="#1faa6a" stroke="#1b2340" stroke-width="6"/><ellipse cx="42" cy="46" rx="30" ry="12" fill="#1faa6a" stroke="#1b2340" stroke-width="6"/><path d="M76 86V62M90 86V40" stroke="#14a394" stroke-width="10" stroke-linecap="round"/></g><rect x="70" y="60" width="64" height="64" rx="18" fill="#2548f0"/><rect x="83" y="92" width="10" height="20" rx="5" fill="#fff" fill-opacity=".55"/><rect x="97" y="82" width="10" height="30" rx="5" fill="#fff" fill-opacity=".8"/><rect x="111" y="72" width="10" height="40" rx="5" fill="#fff"/><text x="150" y="105" font-family="Inter,Helvetica,Arial,sans-serif" font-size="34" fill="#1b2340">entre <tspan font-weight="800">muchos</tspan></text><text font-family="Inter,Helvetica,Arial,sans-serif" font-size="64" font-weight="800" fill="#1b2340"><tspan x="70" y="238">Portátil o móvil:</tspan><tspan x="70" y="315">contado, financiar</tspan><tspan x="70" y="392">o renting</tspan></text><rect x="70" y="560" width="120" height="8" rx="4" fill="#1faa6a"/></svg>