<svg xmlns="http://www.w3.org/2000/svg" width="1200" height="630" viewBox="0 0 1200 630" role="img" aria-label="Gasolina a 1,8021 €/l y diésel a 1,9026: baja desde el 2-oct"><rect width="1200" height="630" fill="#f1f8f8"/><circle cx="1000" cy="330" r="230" fill="#d9f0ee"/><circle cx="1000" cy="330" r="258" fill="none" stroke="#11998e" stroke-opacity=".22" stroke-width="3"/><g transform="translate(850 180) scale(3)"><path d="M8 66l8-20 14-10h38l16 14 10 4v12H8z" fill="#11998e" stroke="#1b2340" stroke-width="6" stroke-linejoin="round"/><circle cx="30" cy="70" r="10" fill="#fff" stroke="#1b2340" stroke-width="6"/><circle cx="72" cy="70" r="10" fill="#fff" stroke="#1b2340" stroke-width="6"/></g><rect x="70" y="60" width="64" height="64" rx="18" fill="#2548f0"/><rect x="83" y="92" width="10" height="20" rx="5" fill="#fff" fill-opacity=".55"/><rect x="97" y="82" width="10" height="30" rx="5" fill="#fff" fill-opacity=".8"/><rect x="111" y="72" width="10" height="40" rx="5" fill="#fff"/><text x="150" y="105" font-family="Inter,Helvetica,Arial,sans-serif" font-size="34" fill="#1b2340">entre <tspan font-weight="800">muchos</tspan></text><text font-family="Inter,Helvetica,Arial,sans-serif" font-size="54" font-weight="800" fill="#1b2340"><tspan x="70" y="250">Gasolina a 1,8021 €/l</tspan><tspan x="70" y="315">y diésel a 1,9026:</tspan><tspan x="70" y="380">baja desde el 2-oct</tspan></text><rect x="70" y="560" width="120" height="8" rx="4" fill="#11998e"/></svg>